# xmcd
# 
# Track frame offsets:
#     150
#     24440
#     48503
#     70141
# 
# Disc length: 1131
# 
# Revision: 0
# Processed by: cddbd v1.5.2PL0 Copyright (c) Steve Scherf et al.
# Submitted via: BonkEnc v1.0.8
# 
DISCID=2d046904
DTITLE=Fright Night - Power of Metal
DYEAR=2004
DGENRE=Power Metal
TTITLE0=Power of Metal
TTITLE1=Violent Behavior
TTITLE2=King
TTITLE3=Sordiers of Hell (Running Wild)
EXTD=Pres. Prudente - SP - Brasil\nRip: J4ck_666
EXTT0=Pres. Prudente - SP - Brasil\nRip: J4ck_666
EXTT1=Pres. Prudente - SP - Brasil\nRip: J4ck_666
EXTT2=Pres. Prudente - SP - Brasil\nRip: J4ck_666
EXTT3=Pres. Prudente - SP - Brasil\nRip: J4ck_666
PLAYORDER=
